<svg xmlns="http://www.w3.org/2000/svg" viewBox="0 0 64 64">
  <defs>
    <linearGradient id="g" x1="0" x2="1" y1="0" y2="1">
      <stop offset="0" stop-color="#222"/>
      <stop offset="1" stop-color="#555"/>
    </linearGradient>
  </defs>
  <rect width="64" height="64" rx="8" fill="url(#g)"/>
  <path d="M14 18h20c4 0 8 2 10 5v23c-2-3-6-5-10-5H14V18z" fill="#f2e9e4"/>
  <path d="M50 18H30c-4 0-8 2-10 5v23c2-3 6-5 10-5h20V18z" fill="#e0d4cc"/>
  <path d="M14 24h20m-20 6h20m-20 6h20" stroke="#c9b8af" stroke-width="2" stroke-linecap="round"/>
  <circle cx="48" cy="48" r="8" fill="#2b8a3e"/>
  <path d="M45.5 48.5l2.2 2.2 4.8-4.8" stroke="#fff" stroke-width="2" fill="none" stroke-linecap="round" stroke-linejoin="round"/>
</svg>

